<svg width="1440" height="800" viewBox="0 0 1440 800" fill="none" xmlns="http://www.w3.org/2000/svg">
  <rect width="1440" height="800" fill="#3B82F6"/>
  <g opacity="0.8">
    <path d="M168.5 78.5C181.5 78.5 192 68 192 55C192 42 181.5 31.5 168.5 31.5C167.5 31.5 166.5 31.5 165.5 31.7C161.5 13.8 145.5 0.5 126.5 0.5C104 0.5 86 21 86 46C86 47.5 86 49 86.2 50.5C84.5 50.2 82.8 50 81 50C63.5 50 49.5 64 49.5 81.5C49.5 99 63.5 113 81 113H168.5C181.5 113 192 102.5 192 89.5C192 76.5 181.5 66 168.5 66C167.5 66 166.5 66 165.5 66.2C161.5 48.3 145.5 35 126.5 35C123.5 35 120.5 35.3 117.7 35.8C122.5 38.5 126.5 42.5 129.5 47.2C132.5 46.5 135.7 46 139 46C151.5 46 162 56.5 162 69C162 70 162 71 161.8 72C165.8 73.5 168.5 77.5 168.5 78.5Z" fill="white"/>
    <path d="M43.5 195.5C56.5 195.5 67 185 67 172C67 159 56.5 148.5 43.5 148.5C42.5 148.5 41.5 148.5 40.5 148.7C36.5 130.8 20.5 117.5 1.5 117.5C-21 117.5 -39 138 -39 163C-39 164.5 -39 166 -38.8 167.5C-40.5 167.2 -42.2 167 -44 167C-61.5 167 -75.5 181 -75.5 198.5C-75.5 216 -61.5 230 -44 230H43.5C56.5 230 67 219.5 67 206.5C67 193.5 56.5 183 43.5 183C42.5 183 41.5 183 40.5 183.2C36.5 165.3 20.5 152 1.5 152C-1.5 152 -4.5 152.3 -7.3 152.8C-2.5 155.5 1.5 159.5 4.5 164.2C7.5 163.5 10.7 163 14 163C26.5 163 37 173.5 37 186C37 187 37 188 36.8 189C40.8 190.5 43.5 194.5 43.5 195.5Z" fill="white"/>
    <path d="M1168.5 78.5C1181.5 78.5 1192 68 1192 55C1192 42 1181.5 31.5 1168.5 31.5C1167.5 31.5 1166.5 31.5 1165.5 31.7C1161.5 13.8 1145.5 0.5 1126.5 0.5C1104 0.5 1086 21 1086 46C1086 47.5 1086 49 1086.2 50.5C1084.5 50.2 1082.8 50 1081 50C1063.5 50 1049.5 64 1049.5 81.5C1049.5 99 1063.5 113 1081 113H1168.5C1181.5 113 1192 102.5 1192 89.5C1192 76.5 1181.5 66 1168.5 66C1167.5 66 1166.5 66 1165.5 66.2C1161.5 48.3 1145.5 35 1126.5 35C1123.5 35 1120.5 35.3 1117.7 35.8C1122.5 38.5 1126.5 42.5 1129.5 47.2C1132.5 46.5 1135.7 46 1139 46C1151.5 46 1162 56.5 1162 69C1162 70 1162 71 1161.8 72C1165.8 73.5 1168.5 77.5 1168.5 78.5Z" fill="white"/>
    <path d="M1043.5 195.5C1056.5 195.5 1067 185 1067 172C1067 159 1056.5 148.5 1043.5 148.5C1042.5 148.5 1041.5 148.5 1040.5 148.7C1036.5 130.8 1020.5 117.5 1001.5 117.5C979 117.5 961 138 961 163C961 164.5 961 166 961.2 167.5C959.5 167.2 957.8 167 956 167C938.5 167 924.5 181 924.5 198.5C924.5 216 938.5 230 956 230H1043.5C1056.5 230 1067 219.5 1067 206.5C1067 193.5 1056.5 183 1043.5 183C1042.5 183 1041.5 183 1040.5 183.2C1036.5 165.3 1020.5 152 1001.5 152C998.5 152 995.5 152.3 992.7 152.8C997.5 155.5 1001.5 159.5 1004.5 164.2C1007.5 163.5 1010.7 163 1014 163C1026.5 163 1037 173.5 1037 186C1037 187 1037 188 1036.8 189C1040.8 190.5 1043.5 194.5 1043.5 195.5Z" fill="white"/>
    <path d="M568.5 378.5C581.5 378.5 592 368 592 355C592 342 581.5 331.5 568.5 331.5C567.5 331.5 566.5 331.5 565.5 331.7C561.5 313.8 545.5 300.5 526.5 300.5C504 300.5 486 321 486 346C486 347.5 486 349 486.2 350.5C484.5 350.2 482.8 350 481 350C463.5 350 449.5 364 449.5 381.5C449.5 399 463.5 413 481 413H568.5C581.5 413 592 402.5 592 389.5C592 376.5 581.5 366 568.5 366C567.5 366 566.5 366 565.5 366.2C561.5 348.3 545.5 335 526.5 335C523.5 335 520.5 335.3 517.7 335.8C522.5 338.5 526.5 342.5 529.5 347.2C532.5 346.5 535.7 346 539 346C551.5 346 562 356.5 562 369C562 370 562 371 561.8 372C565.8 373.5 568.5 377.5 568.5 378.5Z" fill="white"/>
    <path d="M443.5 495.5C456.5 495.5 467 485 467 472C467 459 456.5 448.5 443.5 448.5C442.5 448.5 441.5 448.5 440.5 448.7C436.5 430.8 420.5 417.5 401.5 417.5C379 417.5 361 438 361 463C361 464.5 361 466 361.2 467.5C359.5 467.2 357.8 467 356 467C338.5 467 324.5 481 324.5 498.5C324.5 516 338.5 530 356 530H443.5C456.5 530 467 519.5 467 506.5C467 493.5 456.5 483 443.5 483C442.5 483 441.5 483 440.5 483.2C436.5 465.3 420.5 452 401.5 452C398.5 452 395.5 452.3 392.7 452.8C397.5 455.5 401.5 459.5 404.5 464.2C407.5 463.5 410.7 463 414 463C426.5 463 437 473.5 437 486C437 487 437 488 436.8 489C440.8 490.5 443.5 494.5 443.5 495.5Z" fill="white"/>
    <path d="M1368.5 378.5C1381.5 378.5 1392 368 1392 355C1392 342 1381.5 331.5 1368.5 331.5C1367.5 331.5 1366.5 331.5 1365.5 331.7C1361.5 313.8 1345.5 300.5 1326.5 300.5C1304 300.5 1286 321 1286 346C1286 347.5 1286 349 1286.2 350.5C1284.5 350.2 1282.8 350 1281 350C1263.5 350 1249.5 364 1249.5 381.5C1249.5 399 1263.5 413 1281 413H1368.5C1381.5 413 1392 402.5 1392 389.5C1392 376.5 1381.5 366 1368.5 366C1367.5 366 1366.5 366 1365.5 366.2C1361.5 348.3 1345.5 335 1326.5 335C1323.5 335 1320.5 335.3 1317.7 335.8C1322.5 338.5 1326.5 342.5 1329.5 347.2C1332.5 346.5 1335.7 346 1339 346C1351.5 346 1362 356.5 1362 369C1362 370 1362 371 1361.8 372C1365.8 373.5 1368.5 377.5 1368.5 378.5Z" fill="white"/>
    <path d="M1243.5 495.5C1256.5 495.5 1267 485 1267 472C1267 459 1256.5 448.5 1243.5 448.5C1242.5 448.5 1241.5 448.5 1240.5 448.7C1236.5 430.8 1220.5 417.5 1201.5 417.5C1179 417.5 1161 438 1161 463C1161 464.5 1161 466 1161.2 467.5C1159.5 467.2 1157.8 467 1156 467C1138.5 467 1124.5 481 1124.5 498.5C1124.5 516 1138.5 530 1156 530H1243.5C1256.5 530 1267 519.5 1267 506.5C1267 493.5 1256.5 483 1243.5 483C1242.5 483 1241.5 483 1240.5 483.2C1236.5 465.3 1220.5 452 1201.5 452C1198.5 452 1195.5 452.3 1192.7 452.8C1197.5 455.5 1201.5 459.5 1204.5 464.2C1207.5 463.5 1210.7 463 1214 463C1226.5 463 1237 473.5 1237 486C1237 487 1237 488 1236.8 489C1240.8 490.5 1243.5 494.5 1243.5 495.5Z" fill="white"/>
    <path d="M768.5 678.5C781.5 678.5 792 668 792 655C792 642 781.5 631.5 768.5 631.5C767.5 631.5 766.5 631.5 765.5 631.7C761.5 613.8 745.5 600.5 726.5 600.5C704 600.5 686 621 686 646C686 647.5 686 649 686.2 650.5C684.5 650.2 682.8 650 681 650C663.5 650 649.5 664 649.5 681.5C649.5 699 663.5 713 681 713H768.5C781.5 713 792 702.5 792 689.5C792 676.5 781.5 666 768.5 666C767.5 666 766.5 666 765.5 666.2C761.5 648.3 745.5 635 726.5 635C723.5 635 720.5 635.3 717.7 635.8C722.5 638.5 726.5 642.5 729.5 647.2C732.5 646.5 735.7 646 739 646C751.5 646 762 656.5 762 669C762 670 762 671 761.8 672C765.8 673.5 768.5 677.5 768.5 678.5Z" fill="white"/>
    <path d="M643.5 795.5C656.5 795.5 667 785 667 772C667 759 656.5 748.5 643.5 748.5C642.5 748.5 641.5 748.5 640.5 748.7C636.5 730.8 620.5 717.5 601.5 717.5C579 717.5 561 738 561 763C561 764.5 561 766 561.2 767.5C559.5 767.2 557.8 767 556 767C538.5 767 524.5 781 524.5 798.5C524.5 816 538.5 830 556 830H643.5C656.5 830 667 819.5 667 806.5C667 793.5 656.5 783 643.5 783C642.5 783 641.5 783 640.5 783.2C636.5 765.3 620.5 752 601.5 752C598.5 752 595.5 752.3 592.7 752.8C597.5 755.5 601.5 759.5 604.5 764.2C607.5 763.5 610.7 763 614 763C626.5 763 637 773.5 637 786C637 787 637 788 636.8 789C640.8 790.5 643.5 794.5 643.5 795.5Z" fill="white"/>
  </g>
</svg>

