<svg width="2617" height="800" viewBox="0 0 2617 800" fill="none" xmlns="http://www.w3.org/2000/svg">
<rect width="800" height="800" rx="400" fill="url(#paint0_linear_27916_98007)"/>
<g opacity="0.5">
<path d="M659.995 388.744C654.506 258.698 554.357 153.257 426.98 140.13C412.199 138.598 400.118 150.85 400.118 165.777V237.845C400.118 252.773 412.28 264.592 426.854 267.538C476.868 277.671 516.838 315.655 530.019 364.688C535.353 362.856 541.424 361.74 548.441 361.712C572.651 361.827 585.713 375.263 595.89 386.127C605.408 396.152 613.003 404.025 628.924 404.259C643.752 404.281 651.341 397.56 659.995 388.744Z" fill="black"/>
<path d="M285.071 165.624C301.479 157.489 319.389 170.443 319.389 188.821V362.425C295.161 362.595 282.238 375.77 272.024 386.483L271.81 386.702C262.274 396.5 254.699 404.283 238.746 404.259C222.825 404.025 215.23 396.152 205.712 386.127C195.535 375.263 182.473 361.827 158.263 361.712C152.37 361.735 147.145 362.526 142.463 363.864C154.479 276.64 209.367 203.176 285.071 165.624Z" fill="black"/>
</g>
<path d="M426.984 659.877C412.204 661.399 400.123 649.157 400.123 634.229V562.161C400.123 547.242 412.285 535.414 426.858 532.469C488.354 520.009 534.664 465.444 534.664 400.006C534.664 399.411 534.66 398.817 534.653 398.224C538.559 396.642 543.031 395.739 548.48 395.747C564.401 395.982 571.996 403.854 581.514 413.879C591.691 424.744 604.753 438.179 628.963 438.294C641.416 438.245 650.891 434.767 658.548 429.944C644.764 551.288 548.204 647.385 426.984 659.877Z" fill="black"/>
<path d="M140 400.454C140.172 503.07 199.245 591.807 285.075 634.382C301.484 642.517 319.394 629.563 319.394 611.185V396.459C303.605 396.514 296.059 404.268 286.571 414.016L286.357 414.236C276.114 424.979 263.147 438.198 238.785 438.294C214.575 438.179 201.513 424.744 191.336 413.879C181.818 403.854 174.223 395.982 158.302 395.747C150.656 395.736 144.935 397.517 140 400.454Z" fill="black"/>
<path d="M1059.69 601V198.578H1317.49V259.688H1132.59V368.939H1299.81V430.049H1132.59V601H1059.69ZM1383.91 601V198.578H1456.81V539.89H1634.05V601H1383.91ZM1950.99 198.578H2023.89V461.489C2023.89 490.308 2017.08 515.656 2003.46 537.532C1989.96 559.409 1970.97 576.504 1946.47 588.817C1921.98 601 1893.35 607.091 1860.61 607.091C1827.73 607.091 1799.04 601 1774.54 588.817C1750.04 576.504 1731.05 559.409 1717.56 537.532C1704.06 515.656 1697.32 490.308 1697.32 461.489V198.578H1770.22V455.397C1770.22 472.165 1773.89 487.098 1781.22 500.198C1788.69 513.298 1799.17 523.581 1812.66 531.048C1826.15 538.384 1842.14 542.051 1860.61 542.051C1879.08 542.051 1895.06 538.384 1908.55 531.048C1922.17 523.581 1932.65 513.298 1939.99 500.198C1947.33 487.098 1950.99 472.165 1950.99 455.397V198.578ZM2176.03 198.578V601H2103.13V198.578H2176.03ZM2391.34 601H2254.97V198.578H2394.09C2434.04 198.578 2468.36 206.634 2497.05 222.747C2525.87 238.729 2548.01 261.719 2563.47 291.717C2578.93 321.715 2586.65 357.608 2586.65 399.396C2586.65 441.315 2578.86 477.339 2563.27 507.468C2547.81 537.598 2525.48 560.719 2496.27 576.831C2467.19 592.944 2432.21 601 2391.34 601ZM2327.87 537.925H2387.8C2415.84 537.925 2439.22 532.816 2457.95 522.598C2476.68 512.25 2490.77 496.858 2500.2 476.422C2509.63 455.856 2514.34 430.18 2514.34 399.396C2514.34 368.612 2509.63 343.068 2500.2 322.763C2490.77 302.328 2476.81 287.066 2458.34 276.98C2440 266.762 2417.21 261.653 2389.96 261.653H2327.87V537.925Z" fill="black"/>
<defs>
<linearGradient id="paint0_linear_27916_98007" x1="400" y1="0" x2="400" y2="800" gradientUnits="userSpaceOnUse">
<stop stop-color="white"/>
<stop offset="1" stop-color="#F1F5F9"/>
</linearGradient>
</defs>
</svg>
